<svg xmlns="http://www.w3.org/2000/svg" viewBox="0 0 800 420" font-family="Segoe UI, sans-serif">
<rect width="800" height="420" fill="#0d1117" rx="8"/>
<text x="64" y="30" fill="#e6edf3" font-size="17" font-weight="700">★ Star History — timoncool/YuE2-Studio</text>
<text x="776" y="30" fill="#e6edf3" font-size="14" text-anchor="end">445 stars · updated 2026-10-05</text>
<line x1="64" y1="364.0" x2="776" y2="364.0" stroke="#30363d" stroke-width="1"/><text x="54" y="368.0" fill="#e6edf3" font-size="13" text-anchor="end">0</text><line x1="64" y1="285.2" x2="776" y2="285.2" stroke="#30363d" stroke-width="1"/><text x="54" y="289.2" fill="#e6edf3" font-size="13" text-anchor="end">111</text><line x1="64" y1="206.4" x2="776" y2="206.4" stroke="#30363d" stroke-width="1"/><text x="54" y="210.4" fill="#e6edf3" font-size="13" text-anchor="end">222</text><line x1="64" y1="126.8" x2="776" y2="126.8" stroke="#30363d" stroke-width="1"/><text x="54" y="130.8" fill="#e6edf3" font-size="13" text-anchor="end">334</text><line x1="64" y1="48.0" x2="776" y2="48.0" stroke="#30363d" stroke-width="1"/><text x="54" y="52.0" fill="#e6edf3" font-size="13" text-anchor="end">445</text>
<path d="M64.0,364.0 L64.0,363.3 L71.7,362.6 L90.8,361.9 L90.9,361.2 L91.0,360.4 L91.0,359.7 L91.0,359.0 L91.2,358.3 L91.5,357.6 L91.5,356.9 L92.1,356.2 L93.4,355.5 L95.7,354.8 L96.0,354.1 L96.0,353.3 L96.2,352.6 L97.7,351.9 L99.5,351.2 L100.1,350.5 L100.2,349.8 L100.7,349.1 L100.8,348.4 L101.3,347.7 L101.9,347.0 L102.0,346.2 L102.0,345.5 L103.2,344.8 L103.6,344.1 L103.8,343.4 L103.8,342.7 L104.7,342.0 L104.8,341.3 L105.1,340.6 L105.9,339.9 L106.2,339.1 L106.3,338.4 L107.0,337.7 L109.1,337.0 L109.3,336.3 L109.4,335.6 L110.3,334.9 L111.2,334.2 L111.7,333.5 L113.0,332.8 L116.3,332.0 L122.3,331.3 L122.9,330.6 L125.2,329.9 L127.4,329.2 L127.9,328.5 L128.6,327.8 L130.6,327.1 L130.9,326.4 L132.0,325.7 L135.1,324.9 L138.4,324.2 L139.1,323.5 L139.2,322.8 L140.4,322.1 L140.6,321.4 L141.2,320.7 L141.2,320.0 L141.4,319.3 L142.2,318.6 L142.2,317.8 L142.7,317.1 L142.9,316.4 L144.2,315.7 L145.1,315.0 L146.6,314.3 L147.2,313.6 L149.5,312.9 L150.2,312.2 L150.9,311.5 L153.3,310.7 L153.9,310.0 L155.6,309.3 L155.9,308.6 L156.4,307.9 L156.6,307.2 L157.6,306.5 L157.8,305.8 L158.6,305.1 L160.8,304.4 L160.8,303.6 L161.1,302.9 L161.4,302.2 L161.5,301.5 L162.4,300.8 L163.7,300.1 L163.9,299.4 L164.1,298.7 L164.4,298.0 L165.3,297.2 L166.2,296.5 L166.2,295.8 L166.4,295.1 L166.5,294.4 L167.3,293.7 L169.5,293.0 L171.3,292.3 L172.0,291.6 L174.5,290.9 L175.2,290.1 L178.9,289.4 L180.2,288.7 L181.6,288.0 L185.1,287.3 L185.6,286.6 L187.1,285.9 L190.4,285.2 L190.9,284.5 L191.0,283.8 L193.6,283.0 L193.7,282.3 L194.1,281.6 L194.9,280.9 L196.2,280.2 L197.7,279.5 L198.2,278.8 L198.8,278.1 L199.1,277.4 L201.1,276.7 L202.9,275.9 L203.0,275.2 L205.5,274.5 L206.4,273.8 L208.1,273.1 L208.6,272.4 L208.7,271.7 L214.6,271.0 L215.1,270.3 L215.2,269.6 L215.5,268.8 L217.6,268.1 L218.3,267.4 L218.6,266.7 L219.5,266.0 L221.3,265.3 L221.5,264.6 L223.4,263.9 L228.3,263.2 L229.4,262.5 L230.9,261.7 L233.7,261.0 L234.8,260.3 L241.3,259.6 L247.9,258.9 L248.6,258.2 L249.1,257.5 L250.0,256.8 L250.8,256.1 L251.0,255.4 L252.0,254.6 L252.6,253.9 L253.2,253.2 L256.1,252.5 L256.5,251.8 L256.9,251.1 L258.7,250.4 L262.8,249.7 L267.9,249.0 L270.9,248.3 L272.5,247.5 L272.9,246.8 L273.7,246.1 L274.3,245.4 L274.6,244.7 L274.7,244.0 L275.7,243.3 L275.8,242.6 L279.0,241.9 L280.0,241.2 L281.6,240.4 L281.8,239.7 L282.2,239.0 L282.5,238.3 L284.7,237.6 L289.5,236.9 L290.4,236.2 L291.0,235.5 L291.2,234.8 L292.3,234.0 L295.6,233.3 L296.2,232.6 L296.4,231.9 L297.7,231.2 L298.5,230.5 L299.1,229.8 L299.9,229.1 L303.8,228.4 L306.2,227.7 L306.8,226.9 L307.4,226.2 L309.8,225.5 L310.8,224.8 L314.3,224.1 L314.4,223.4 L316.3,222.7 L317.2,222.0 L319.0,221.3 L319.3,220.6 L320.1,219.8 L320.7,219.1 L320.9,218.4 L322.6,217.7 L322.8,217.0 L326.5,216.3 L327.2,215.6 L329.1,214.9 L331.1,214.2 L332.7,213.5 L334.4,212.7 L334.5,212.0 L336.7,211.3 L337.2,210.6 L338.9,209.9 L339.0,209.2 L339.4,208.5 L340.4,207.8 L340.8,207.1 L341.4,206.4 L341.5,205.6 L344.1,204.9 L344.2,204.2 L344.5,203.5 L344.6,202.8 L344.6,202.1 L345.4,201.4 L345.4,200.7 L347.3,200.0 L349.1,199.3 L349.1,198.5 L353.8,197.8 L359.2,197.1 L360.6,196.4 L361.0,195.7 L364.3,195.0 L365.7,194.3 L365.7,193.6 L365.8,192.9 L366.2,192.2 L367.0,191.4 L368.2,190.7 L370.7,190.0 L371.2,189.3 L371.7,188.6 L372.9,187.9 L376.2,187.2 L376.6,186.5 L379.2,185.8 L381.1,185.1 L383.3,184.3 L383.4,183.6 L384.1,182.9 L384.3,182.2 L385.8,181.5 L386.0,180.8 L387.6,180.1 L388.9,179.4 L389.0,178.7 L389.7,178.0 L391.5,177.2 L395.7,176.5 L395.8,175.8 L396.9,175.1 L397.9,174.4 L398.5,173.7 L399.1,173.0 L401.1,172.3 L401.6,171.6 L407.0,170.8 L407.3,170.1 L408.4,169.4 L408.4,168.7 L408.5,168.0 L408.7,167.3 L409.5,166.6 L411.1,165.9 L411.1,165.2 L413.6,164.5 L413.7,163.7 L414.0,163.0 L417.2,162.3 L417.7,161.6 L423.3,160.9 L425.2,160.2 L426.3,159.5 L428.3,158.8 L428.4,158.1 L428.5,157.4 L431.5,156.6 L431.9,155.9 L432.0,155.2 L433.0,154.5 L433.6,153.8 L434.5,153.1 L435.1,152.4 L436.5,151.7 L437.3,151.0 L438.7,150.3 L439.8,149.5 L441.3,148.8 L442.0,148.1 L444.2,147.4 L445.2,146.7 L445.6,146.0 L446.5,145.3 L449.4,144.6 L449.5,143.9 L453.3,143.2 L455.8,142.4 L460.4,141.7 L460.6,141.0 L460.7,140.3 L464.1,139.6 L466.5,138.9 L467.0,138.2 L467.6,137.5 L468.9,136.8 L469.9,136.1 L472.8,135.3 L476.4,134.6 L480.2,133.9 L481.9,133.2 L482.0,132.5 L482.1,131.8 L488.6,131.1 L491.5,130.4 L495.6,129.7 L499.5,129.0 L500.2,128.2 L500.4,127.5 L501.1,126.8 L511.3,126.1 L512.4,125.4 L516.2,124.7 L516.5,124.0 L516.9,123.3 L518.2,122.6 L518.8,121.9 L520.0,121.1 L520.2,120.4 L526.3,119.7 L529.4,119.0 L530.9,118.3 L532.0,117.6 L540.9,116.9 L543.8,116.2 L547.8,115.5 L548.9,114.8 L550.9,114.0 L551.1,113.3 L553.1,112.6 L553.4,111.9 L555.9,111.2 L558.0,110.5 L558.6,109.8 L559.5,109.1 L566.1,108.4 L571.4,107.6 L572.8,106.9 L576.9,106.2 L580.3,105.5 L581.2,104.8 L582.2,104.1 L583.1,103.4 L583.8,102.7 L589.7,102.0 L594.4,101.3 L598.3,100.5 L604.1,99.8 L604.2,99.1 L610.9,98.4 L611.2,97.7 L611.3,97.0 L612.4,96.3 L612.9,95.6 L614.0,94.9 L617.2,94.2 L617.6,93.4 L618.4,92.7 L619.0,92.0 L620.4,91.3 L620.4,90.6 L621.0,89.9 L623.5,89.2 L623.9,88.5 L624.4,87.8 L626.4,87.1 L626.9,86.3 L628.2,85.6 L628.2,84.9 L628.8,84.2 L629.2,83.5 L630.0,82.8 L630.1,82.1 L630.7,81.4 L631.2,80.7 L631.9,80.0 L636.8,79.2 L636.9,78.5 L642.3,77.8 L643.5,77.1 L648.8,76.4 L648.9,75.7 L649.5,75.0 L650.5,74.3 L650.6,73.6 L651.3,72.9 L651.5,72.1 L660.1,71.4 L660.2,70.7 L667.4,70.0 L669.0,69.3 L675.1,68.6 L684.5,67.9 L686.0,67.2 L686.7,66.5 L687.0,65.8 L687.2,65.0 L688.5,64.3 L701.1,63.6 L708.7,62.9 L719.3,62.2 L719.9,61.5 L726.4,60.8 L729.5,60.1 L730.1,59.4 L733.5,58.7 L735.0,57.9 L737.8,57.2 L741.8,56.5 L742.6,55.8 L744.6,55.1 L748.2,54.4 L748.5,53.7 L752.5,53.0 L756.1,52.3 L760.9,51.6 L766.7,50.8 L767.6,50.1 L770.1,49.4 L773.8,48.7 L776.0,48.0 L776.0,48.0" fill="none" stroke="#4f8ff7" stroke-width="2.5" stroke-linejoin="round"/>
<circle cx="776.0" cy="48.0" r="4" fill="#4f8ff7"/>
<text x="64.0" y="388" fill="#e6edf3" font-size="13" text-anchor="middle">Sep 23, 2026</text><text x="301.3" y="388" fill="#e6edf3" font-size="13" text-anchor="middle">Sep 27, 2026</text><text x="538.7" y="388" fill="#e6edf3" font-size="13" text-anchor="middle">Oct 01, 2026</text><text x="776.0" y="388" fill="#e6edf3" font-size="13" text-anchor="middle">Oct 05, 2026</text>
</svg>