<svg xmlns="http://www.w3.org/2000/svg" viewBox="0 0 800 420" font-family="Segoe UI, sans-serif">
<rect width="800" height="420" fill="#ffffff" rx="8"/>
<text x="64" y="30" fill="#1f2328" font-size="17" font-weight="700">★ Star History — timoncool/YuE2-Studio</text>
<text x="776" y="30" fill="#1f2328" font-size="14" text-anchor="end">425 stars · updated 2026-10-04</text>
<line x1="64" y1="364.0" x2="776" y2="364.0" stroke="#d1d9e0" stroke-width="1"/><text x="54" y="368.0" fill="#1f2328" font-size="13" text-anchor="end">0</text><line x1="64" y1="285.2" x2="776" y2="285.2" stroke="#d1d9e0" stroke-width="1"/><text x="54" y="289.2" fill="#1f2328" font-size="13" text-anchor="end">106</text><line x1="64" y1="206.4" x2="776" y2="206.4" stroke="#d1d9e0" stroke-width="1"/><text x="54" y="210.4" fill="#1f2328" font-size="13" text-anchor="end">212</text><line x1="64" y1="126.8" x2="776" y2="126.8" stroke="#d1d9e0" stroke-width="1"/><text x="54" y="130.8" fill="#1f2328" font-size="13" text-anchor="end">319</text><line x1="64" y1="48.0" x2="776" y2="48.0" stroke="#d1d9e0" stroke-width="1"/><text x="54" y="52.0" fill="#1f2328" font-size="13" text-anchor="end">425</text>
<path d="M64.0,364.0 L64.0,363.3 L72.4,362.5 L93.2,361.8 L93.2,361.0 L93.3,360.3 L93.3,359.5 L93.3,358.8 L93.5,358.1 L93.8,357.3 L93.9,356.6 L94.5,355.8 L95.9,355.1 L98.5,354.3 L98.8,353.6 L98.8,352.8 L99.0,352.1 L100.6,351.4 L102.6,350.6 L103.2,349.9 L103.3,349.1 L103.8,348.4 L104.0,347.6 L104.5,346.9 L105.2,346.2 L105.3,345.4 L105.3,344.7 L106.6,343.9 L107.1,343.2 L107.2,342.4 L107.2,341.7 L108.2,341.0 L108.3,340.2 L108.7,339.5 L109.5,338.7 L109.9,338.0 L109.9,337.2 L110.7,336.5 L113.0,335.7 L113.2,335.0 L113.3,334.3 L114.3,333.5 L115.3,332.8 L115.9,332.0 L117.2,331.3 L120.8,330.5 L127.3,329.8 L128.0,329.1 L130.5,328.3 L132.9,327.6 L133.4,326.8 L134.2,326.1 L136.3,325.3 L136.7,324.6 L137.9,323.8 L141.2,323.1 L144.8,322.4 L145.6,321.6 L145.7,320.9 L147.0,320.1 L147.2,319.4 L147.9,318.6 L147.9,317.9 L148.1,317.2 L148.9,316.4 L149.0,315.7 L149.5,314.9 L149.7,314.2 L151.2,313.4 L152.1,312.7 L153.7,312.0 L154.4,311.2 L156.9,310.5 L157.6,309.7 L158.4,309.0 L161.0,308.2 L161.7,307.5 L163.5,306.7 L163.9,306.0 L164.4,305.3 L164.7,304.5 L165.7,303.8 L165.9,303.0 L166.7,302.3 L169.1,301.5 L169.2,300.8 L169.5,300.1 L169.8,299.3 L170.0,298.6 L170.9,297.8 L172.3,297.1 L172.5,296.3 L172.8,295.6 L173.1,294.9 L174.0,294.1 L175.0,293.4 L175.0,292.6 L175.2,291.9 L175.3,291.1 L176.3,290.4 L178.6,289.6 L180.6,288.9 L181.3,288.2 L184.0,287.4 L184.8,286.7 L188.9,285.9 L190.3,285.2 L191.8,284.4 L195.6,283.7 L196.1,283.0 L197.8,282.2 L201.3,281.5 L201.9,280.7 L202.0,280.0 L204.8,279.2 L205.0,278.5 L205.4,277.8 L206.2,277.0 L207.7,276.3 L209.2,275.5 L209.8,274.8 L210.5,274.0 L210.8,273.3 L213.0,272.5 L214.9,271.8 L215.1,271.1 L217.8,270.3 L218.7,269.6 L220.5,268.8 L221.1,268.1 L221.2,267.3 L227.6,266.6 L228.2,265.9 L228.3,265.1 L228.6,264.4 L230.9,263.6 L231.7,262.9 L232.0,262.1 L232.9,261.4 L235.0,260.6 L235.1,259.9 L237.2,259.2 L242.5,258.4 L243.7,257.7 L245.4,256.9 L248.4,256.2 L249.6,255.4 L256.6,254.7 L263.8,254.0 L264.6,253.2 L265.1,252.5 L266.1,251.7 L267.0,251.0 L267.2,250.2 L268.3,249.5 L268.9,248.8 L269.6,248.0 L272.7,247.3 L273.2,246.5 L273.5,245.8 L275.5,245.0 L280.0,244.3 L285.5,243.5 L288.8,242.8 L290.6,242.1 L291.0,241.3 L291.8,240.6 L292.5,239.8 L292.8,239.1 L292.9,238.3 L294.0,237.6 L294.1,236.9 L297.6,236.1 L298.7,235.4 L300.5,234.6 L300.6,233.9 L301.1,233.1 L301.4,232.4 L303.8,231.7 L309.0,230.9 L310.0,230.2 L310.7,229.4 L310.8,228.7 L312.1,227.9 L315.7,227.2 L316.3,226.4 L316.5,225.7 L317.9,225.0 L318.8,224.2 L319.4,223.5 L320.3,222.7 L324.6,222.0 L327.2,221.2 L327.8,220.5 L328.4,219.8 L331.1,219.0 L332.2,218.3 L336.0,217.5 L336.0,216.8 L338.1,216.0 L339.1,215.3 L341.1,214.6 L341.4,213.8 L342.2,213.1 L342.9,212.3 L343.2,211.6 L345.0,210.8 L345.2,210.1 L349.2,209.3 L350.0,208.6 L352.0,207.9 L354.3,207.1 L356.0,206.4 L357.8,205.6 L357.9,204.9 L360.3,204.1 L360.9,203.4 L362.7,202.7 L362.8,201.9 L363.2,201.2 L364.3,200.4 L364.8,199.7 L365.5,198.9 L365.5,198.2 L368.3,197.4 L368.5,196.7 L368.8,196.0 L368.8,195.2 L368.9,194.5 L369.8,193.7 L369.8,193.0 L371.8,192.2 L373.7,191.5 L373.8,190.8 L378.9,190.0 L384.8,189.3 L386.2,188.5 L386.7,187.8 L390.3,187.0 L391.8,186.3 L391.8,185.6 L392.0,184.8 L392.4,184.1 L393.2,183.3 L394.5,182.6 L397.2,181.8 L397.7,181.1 L398.3,180.3 L399.6,179.6 L403.2,178.9 L403.7,178.1 L406.5,177.4 L408.5,176.6 L410.9,175.9 L411.1,175.1 L411.8,174.4 L412.0,173.7 L413.7,172.9 L413.9,172.2 L415.6,171.4 L417.1,170.7 L417.2,169.9 L417.8,169.2 L419.8,168.5 L424.4,167.7 L424.5,167.0 L425.7,166.2 L426.8,165.5 L427.4,164.7 L428.1,164.0 L430.3,163.2 L430.8,162.5 L436.7,161.8 L437.0,161.0 L438.2,160.3 L438.3,159.5 L438.3,158.8 L438.5,158.0 L439.4,157.3 L441.2,156.6 L441.2,155.8 L443.9,155.1 L443.9,154.3 L444.3,153.6 L447.8,152.8 L448.3,152.1 L454.4,151.4 L456.5,150.6 L457.6,149.9 L459.8,149.1 L459.9,148.4 L460.1,147.6 L463.3,146.9 L463.7,146.1 L463.9,145.4 L465.0,144.7 L465.6,143.9 L466.5,143.2 L467.2,142.4 L468.7,141.7 L469.6,140.9 L471.1,140.2 L472.4,139.5 L473.9,138.7 L474.8,138.0 L477.1,137.2 L478.2,136.5 L478.6,135.7 L479.5,135.0 L482.7,134.2 L482.8,133.5 L486.9,132.8 L489.6,132.0 L494.7,131.3 L494.9,130.5 L495.0,129.8 L498.8,129.0 L501.3,128.3 L501.8,127.6 L502.5,126.8 L504.0,126.1 L505.0,125.3 L508.2,124.6 L512.0,123.8 L516.2,123.1 L518.0,122.4 L518.2,121.6 L518.3,120.9 L525.3,120.1 L528.5,119.4 L533.0,118.6 L537.2,117.9 L537.9,117.1 L538.1,116.4 L538.9,115.7 L550.1,114.9 L551.2,114.2 L555.4,113.4 L555.7,112.7 L556.1,111.9 L557.5,111.2 L558.2,110.5 L559.5,109.7 L559.7,109.0 L566.3,108.2 L569.7,107.5 L571.3,106.7 L572.5,106.0 L582.2,105.3 L585.3,104.5 L589.6,103.8 L590.9,103.0 L593.0,102.3 L593.2,101.5 L595.4,100.8 L595.8,100.0 L598.5,99.3 L600.8,98.6 L601.4,97.8 L602.4,97.1 L609.5,96.3 L615.3,95.6 L616.9,94.8 L621.3,94.1 L624.9,93.4 L626.0,92.6 L627.1,91.9 L628.0,91.1 L628.7,90.4 L635.1,89.6 L640.3,88.9 L644.5,88.2 L650.8,87.4 L650.9,86.7 L658.2,85.9 L658.6,85.2 L658.6,84.4 L659.8,83.7 L660.4,82.9 L661.6,82.2 L665.1,81.5 L665.5,80.7 L666.3,80.0 L667.0,79.2 L668.5,78.5 L668.5,77.7 L669.2,77.0 L671.9,76.3 L672.3,75.5 L672.9,74.8 L675.1,74.0 L675.6,73.3 L677.0,72.5 L677.0,71.8 L677.7,71.0 L678.1,70.3 L679.0,69.6 L679.1,68.8 L679.8,68.1 L680.2,67.3 L681.0,66.6 L686.4,65.8 L686.5,65.1 L692.3,64.4 L693.7,63.6 L699.4,62.9 L699.5,62.1 L700.2,61.4 L701.3,60.6 L701.4,59.9 L702.1,59.2 L702.3,58.4 L711.7,57.7 L711.8,56.9 L719.6,56.2 L721.3,55.4 L728.0,54.7 L738.2,53.9 L739.9,53.2 L740.5,52.5 L740.9,51.7 L741.2,51.0 L742.5,50.2 L756.2,49.5 L764.5,48.7 L776.0,48.0 L776.0,48.0" fill="none" stroke="#0969da" stroke-width="2.5" stroke-linejoin="round"/>
<circle cx="776.0" cy="48.0" r="4" fill="#0969da"/>
<text x="64.0" y="388" fill="#1f2328" font-size="13" text-anchor="middle">Sep 23, 2026</text><text x="301.3" y="388" fill="#1f2328" font-size="13" text-anchor="middle">Sep 26, 2026</text><text x="538.7" y="388" fill="#1f2328" font-size="13" text-anchor="middle">Sep 30, 2026</text><text x="776.0" y="388" fill="#1f2328" font-size="13" text-anchor="middle">Oct 04, 2026</text>
</svg>