<svg xmlns="http://www.w3.org/2000/svg" viewBox="0 0 800 420" font-family="Segoe UI, sans-serif">
<rect width="800" height="420" fill="#ffffff" rx="8"/>
<text x="64" y="30" fill="#1f2328" font-size="17" font-weight="700">★ Star History — timoncool/YuE2-Studio</text>
<text x="776" y="30" fill="#1f2328" font-size="14" text-anchor="end">430 stars · updated 2026-10-04</text>
<line x1="64" y1="364.0" x2="776" y2="364.0" stroke="#d1d9e0" stroke-width="1"/><text x="54" y="368.0" fill="#1f2328" font-size="13" text-anchor="end">0</text><line x1="64" y1="284.6" x2="776" y2="284.6" stroke="#d1d9e0" stroke-width="1"/><text x="54" y="288.6" fill="#1f2328" font-size="13" text-anchor="end">108</text><line x1="64" y1="206.0" x2="776" y2="206.0" stroke="#d1d9e0" stroke-width="1"/><text x="54" y="210.0" fill="#1f2328" font-size="13" text-anchor="end">215</text><line x1="64" y1="127.4" x2="776" y2="127.4" stroke="#d1d9e0" stroke-width="1"/><text x="54" y="131.4" fill="#1f2328" font-size="13" text-anchor="end">322</text><line x1="64" y1="48.0" x2="776" y2="48.0" stroke="#d1d9e0" stroke-width="1"/><text x="54" y="52.0" fill="#1f2328" font-size="13" text-anchor="end">430</text>
<path d="M64.0,364.0 L64.0,363.3 L72.2,362.5 L92.5,361.8 L92.6,361.1 L92.7,360.3 L92.7,359.6 L92.7,358.9 L92.9,358.1 L93.2,357.4 L93.3,356.7 L93.9,355.9 L95.2,355.2 L97.8,354.4 L98.0,353.7 L98.1,353.0 L98.2,352.2 L99.9,351.5 L101.8,350.8 L102.4,350.0 L102.5,349.3 L103.0,348.6 L103.1,347.8 L103.6,347.1 L104.3,346.4 L104.4,345.6 L104.4,344.9 L105.7,344.2 L106.2,343.4 L106.3,342.7 L106.3,342.0 L107.3,341.2 L107.4,340.5 L107.7,339.7 L108.6,339.0 L108.9,338.3 L109.0,337.5 L109.8,336.8 L112.0,336.1 L112.2,335.3 L112.2,334.6 L113.2,333.9 L114.2,333.1 L114.8,332.4 L116.1,331.7 L119.6,330.9 L126.0,330.2 L126.7,329.5 L129.1,328.7 L131.5,328.0 L131.9,327.3 L132.7,326.5 L134.8,325.8 L135.2,325.1 L136.4,324.3 L139.6,323.6 L143.1,322.8 L143.9,322.1 L144.0,321.4 L145.3,320.6 L145.4,319.9 L146.1,319.2 L146.1,318.4 L146.3,317.7 L147.1,317.0 L147.2,316.2 L147.7,315.5 L147.9,314.8 L149.3,314.0 L150.2,313.3 L151.8,312.6 L152.5,311.8 L154.9,311.1 L155.6,310.4 L156.4,309.6 L158.9,308.9 L159.6,308.1 L161.4,307.4 L161.8,306.7 L162.3,305.9 L162.5,305.2 L163.6,304.5 L163.8,303.7 L164.6,303.0 L166.9,302.3 L167.0,301.5 L167.3,300.8 L167.5,300.1 L167.7,299.3 L168.6,298.6 L170.0,297.9 L170.2,297.1 L170.5,296.4 L170.7,295.7 L171.7,294.9 L172.6,294.2 L172.7,293.5 L172.9,292.7 L173.0,292.0 L173.9,291.2 L176.2,290.5 L178.1,289.8 L178.8,289.0 L181.5,288.3 L182.3,287.6 L186.2,286.8 L187.6,286.1 L189.1,285.4 L192.8,284.6 L193.3,283.9 L194.9,283.2 L198.4,282.4 L199.0,281.7 L199.0,281.0 L201.8,280.2 L202.0,279.5 L202.4,278.8 L203.2,278.0 L204.6,277.3 L206.2,276.5 L206.7,275.8 L207.4,275.1 L207.6,274.3 L209.8,273.6 L211.7,272.9 L211.9,272.1 L214.5,271.4 L215.5,270.7 L217.2,269.9 L217.7,269.2 L217.8,268.5 L224.1,267.7 L224.7,267.0 L224.8,266.3 L225.1,265.5 L227.4,264.8 L228.1,264.1 L228.4,263.3 L229.3,262.6 L231.3,261.9 L231.5,261.1 L233.5,260.4 L238.7,259.6 L239.9,258.9 L241.5,258.2 L244.5,257.4 L245.6,256.7 L252.5,256.0 L259.5,255.2 L260.3,254.5 L260.8,253.8 L261.8,253.0 L262.7,252.3 L262.9,251.6 L264.0,250.8 L264.6,250.1 L265.2,249.4 L268.3,248.6 L268.8,247.9 L269.1,247.2 L271.0,246.4 L275.4,245.7 L280.8,244.9 L284.0,244.2 L285.8,243.5 L286.2,242.7 L287.0,242.0 L287.6,241.3 L287.9,240.5 L288.1,239.8 L289.1,239.1 L289.2,238.3 L292.7,237.6 L293.7,236.9 L295.4,236.1 L295.6,235.4 L296.1,234.7 L296.3,233.9 L298.7,233.2 L303.8,232.5 L304.7,231.7 L305.4,231.0 L305.6,230.3 L306.8,229.5 L310.3,228.8 L310.9,228.0 L311.1,227.3 L312.5,226.6 L313.4,225.8 L314.0,225.1 L314.8,224.4 L319.0,223.6 L321.6,222.9 L322.2,222.2 L322.8,221.4 L325.4,220.7 L326.5,220.0 L330.2,219.2 L330.2,218.5 L332.3,217.8 L333.3,217.0 L335.2,216.3 L335.5,215.6 L336.3,214.8 L337.0,214.1 L337.2,213.3 L339.0,212.6 L339.2,211.9 L343.1,211.1 L343.9,210.4 L345.9,209.7 L348.1,208.9 L349.8,208.2 L351.5,207.5 L351.7,206.7 L354.0,206.0 L354.6,205.3 L356.3,204.5 L356.5,203.8 L356.9,203.1 L357.9,202.3 L358.4,201.6 L359.0,200.9 L359.1,200.1 L361.9,199.4 L362.0,198.7 L362.3,197.9 L362.4,197.2 L362.4,196.4 L363.3,195.7 L363.3,195.0 L365.3,194.2 L367.2,193.5 L367.2,192.8 L372.2,192.0 L377.9,191.3 L379.4,190.6 L379.8,189.8 L383.3,189.1 L384.8,188.4 L384.8,187.6 L385.0,186.9 L385.4,186.2 L386.2,185.4 L387.5,184.7 L390.1,184.0 L390.6,183.2 L391.2,182.5 L392.5,181.7 L396.0,181.0 L396.5,180.3 L399.2,179.5 L401.2,178.8 L403.5,178.1 L403.7,177.3 L404.4,176.6 L404.6,175.9 L406.2,175.1 L406.4,174.4 L408.1,173.7 L409.6,172.9 L409.6,172.2 L410.3,171.5 L412.2,170.7 L416.7,170.0 L416.8,169.3 L418.0,168.5 L419.1,167.8 L419.7,167.1 L420.4,166.3 L422.5,165.6 L423.0,164.8 L428.8,164.1 L429.1,163.4 L430.2,162.6 L430.3,161.9 L430.4,161.2 L430.5,160.4 L431.4,159.7 L433.1,159.0 L433.1,158.2 L435.8,157.5 L435.9,156.8 L436.2,156.0 L439.6,155.3 L440.1,154.6 L446.1,153.8 L448.2,153.1 L449.3,152.4 L451.4,151.6 L451.5,150.9 L451.7,150.1 L454.9,149.4 L455.2,148.7 L455.4,147.9 L456.5,147.2 L457.0,146.5 L458.0,145.7 L458.7,145.0 L460.1,144.3 L460.9,143.5 L462.5,142.8 L463.7,142.1 L465.2,141.3 L466.0,140.6 L468.3,139.9 L469.4,139.1 L469.8,138.4 L470.7,137.7 L473.8,136.9 L473.9,136.2 L477.9,135.5 L480.6,134.7 L485.5,134.0 L485.8,133.2 L485.9,132.5 L489.5,131.8 L492.0,131.0 L492.5,130.3 L493.2,129.6 L494.6,128.8 L495.6,128.1 L498.8,127.4 L502.5,126.6 L506.6,125.9 L508.4,125.2 L508.5,124.4 L508.6,123.7 L515.5,123.0 L518.6,122.2 L523.0,121.5 L527.1,120.8 L527.9,120.0 L528.0,119.3 L528.8,118.5 L539.7,117.8 L540.8,117.1 L544.9,116.3 L545.2,115.6 L545.7,114.9 L547.1,114.1 L547.7,113.4 L549.0,112.7 L549.1,111.9 L555.7,111.2 L558.9,110.5 L560.5,109.7 L561.7,109.0 L571.2,108.3 L574.3,107.5 L578.4,106.8 L579.7,106.1 L581.8,105.3 L582.0,104.6 L584.1,103.9 L584.5,103.1 L587.1,102.4 L589.4,101.6 L590.0,100.9 L591.0,100.2 L597.9,99.4 L603.6,98.7 L605.1,98.0 L609.4,97.2 L613.0,96.5 L614.0,95.8 L615.1,95.0 L616.0,94.3 L616.7,93.6 L623.0,92.8 L628.1,92.1 L632.2,91.4 L638.3,90.6 L638.4,89.9 L645.6,89.2 L646.0,88.4 L646.0,87.7 L647.2,86.9 L647.7,86.2 L648.9,85.5 L652.3,84.7 L652.8,84.0 L653.5,83.3 L654.2,82.5 L655.6,81.8 L655.7,81.1 L656.3,80.3 L659.0,79.6 L659.4,78.9 L660.0,78.1 L662.1,77.4 L662.6,76.7 L664.0,75.9 L664.0,75.2 L664.6,74.5 L665.1,73.7 L665.9,73.0 L666.0,72.3 L666.7,71.5 L667.1,70.8 L667.9,70.0 L673.2,69.3 L673.2,68.6 L679.0,67.8 L680.3,67.1 L685.9,66.4 L686.0,65.6 L686.6,64.9 L687.7,64.2 L687.9,63.4 L688.6,62.7 L688.8,62.0 L697.9,61.2 L698.1,60.5 L705.6,59.8 L707.3,59.0 L713.9,58.3 L723.8,57.6 L725.5,56.8 L726.2,56.1 L726.6,55.3 L726.8,54.6 L728.1,53.9 L741.5,53.1 L749.6,52.4 L760.9,51.7 L761.5,50.9 L768.4,50.2 L771.7,49.5 L772.4,48.7 L776.0,48.0 L776.0,48.0" fill="none" stroke="#0969da" stroke-width="2.5" stroke-linejoin="round"/>
<circle cx="776.0" cy="48.0" r="4" fill="#0969da"/>
<text x="64.0" y="388" fill="#1f2328" font-size="13" text-anchor="middle">Sep 23, 2026</text><text x="301.3" y="388" fill="#1f2328" font-size="13" text-anchor="middle">Sep 26, 2026</text><text x="538.7" y="388" fill="#1f2328" font-size="13" text-anchor="middle">Sep 30, 2026</text><text x="776.0" y="388" fill="#1f2328" font-size="13" text-anchor="middle">Oct 04, 2026</text>
</svg>